<svg width="1440" height="263" viewBox="0 0 1440 263" fill="none" xmlns="http://www.w3.org/2000/svg">
<path d="M1440 263L0 263V111.71L1440 111.71V263ZM1440 24.4672L1418.4 30.6988C1396.8 36.9305 1352.4 49.3937 1309.2 43.1621C1266 36.9305 1221.6 12.004 1178.4 3.69513C1134 -4.61371 1090.8 3.69513 1047.6 14.0812C1003.2 24.4672 960 36.9305 916.8 49.3937C872.4 61.857 829.2 74.3202 786 82.629C741.6 90.9379 698.4 95.0923 654 82.629C610.8 70.1658 567.6 41.0849 523.2 36.9305C480 32.776 436.8 53.5481 392.4 53.5481C349.2 53.5481 306 32.776 261.6 24.4672C218.4 16.1584 174 20.3128 130.8 36.9305C87.6 53.5481 43.2 82.629 21.6 97.1695L0 111.71H21.6C43.2 111.71 87.6 111.71 130.8 111.71C174 111.71 218.4 111.71 261.6 111.71C306 111.71 349.2 111.71 392.4 111.71C436.8 111.71 480 111.71 523.2 111.71C567.6 111.71 610.8 111.71 654 111.71C698.4 111.71 741.6 111.71 786 111.71C829.2 111.71 872.4 111.71 916.8 111.71C960 111.71 1003.2 111.71 1047.6 111.71C1090.8 111.71 1134 111.71 1178.4 111.71C1221.6 111.71 1266 111.71 1309.2 111.71C1352.4 111.71 1396.8 111.71 1418.4 111.71H1440V24.4672Z" fill="#0079FF"/>
<path fill-rule="evenodd" clip-rule="evenodd" d="M1440 263L0 263V111.71L1440 111.71V263ZM1440 24.4672L1418.4 30.6988C1396.8 36.9305 1352.4 49.3937 1309.2 43.1621C1266 36.9305 1221.6 12.004 1178.4 3.69513C1134 -4.61371 1090.8 3.69513 1047.6 14.0812C1003.2 24.4672 960 36.9305 916.8 49.3937C872.4 61.857 829.2 74.3202 786 82.629C741.6 90.9379 698.4 95.0923 654 82.629C610.8 70.1658 567.6 41.0849 523.2 36.9305C480 32.776 436.8 53.5481 392.4 53.5481C349.2 53.5481 306 32.776 261.6 24.4672C218.4 16.1584 174 20.3128 130.8 36.9305C87.6 53.5481 43.2 82.629 21.6 97.1695L0 111.71H21.6C43.2 111.71 87.6 111.71 130.8 111.71C174 111.71 218.4 111.71 261.6 111.71C306 111.71 349.2 111.71 392.4 111.71C436.8 111.71 480 111.71 523.2 111.71C567.6 111.71 610.8 111.71 654 111.71C698.4 111.71 741.6 111.71 786 111.71C829.2 111.71 872.4 111.71 916.8 111.71C960 111.71 1003.2 111.71 1047.6 111.71C1090.8 111.71 1134 111.71 1178.4 111.71C1221.6 111.71 1266 111.71 1309.2 111.71C1352.4 111.71 1396.8 111.71 1418.4 111.71H1440V24.4672Z" fill="#0079FF"/>
</svg>
